# xmcd
#
# Track frame offsets: 
#        150
#        17525
#        32825
#        49760
#        66822
#        81780
#        93832
#        111245
#        125115
#        140297
#        166505
#        181347
#        198940
#        214287
#        228767
#        244675
#        262770
#        280225
#        295610
#        310372
#
# Disc length: 4344 seconds
#
# Revision: 2
# Processed by: cddbd v1.5.2PL0 Copyright (c) Steve Scherf et al.
# Submitted via: ExactAudioCopy v0.95b4
#
DISCID=0e10f614
DTITLE=The Oak Ridge Boys - American Made - Deliver
DYEAR=1900
DGENRE=Country
TTITLE0=Love Song 
TTITLE1=She's Not Just Another Pretty Face
TTITLE2=Amity
TTITLE3=You're The One
TTITLE4=Down The Hall
TTITLE5=American Made
TTITLE6=Any Old Time You Choose
TTITLE7=Heart On The Line (Operator, Operator)
TTITLE8=You Made It Beautiful
TTITLE9=I'm So Glad I'm Standing Here Today
TTITLE10=Ozark Mountain Jubilee
TTITLE11=When You Get To The Heart
TTITLE12=Alice Is In Wonderland
TTITLE13=Ain't No Cure For The Rock And Roll
TTITLE14=In The Pines
TTITLE15=I Guess It Never Hurts To Hurt Sometimes
TTITLE16=Through My Eyes
TTITLE17=Break My Mind
TTITLE18=Still Holding On
TTITLE19=Down Deep Inside
EXTD=
EXTT0=
EXTT1=
EXTT2=
EXTT3=
EXTT4=
EXTT5=
EXTT6=
EXTT7=
EXTT8=
EXTT9=
EXTT10=
EXTT11=
EXTT12=
EXTT13=
EXTT14=
EXTT15=
EXTT16=
EXTT17=
EXTT18=
EXTT19=
PLAYORDER=
